<svg viewBox="1.5 1.5 13 13" fill="none" xmlns="http://www.w3.org/2000/svg">
<path fill-rule="evenodd" clip-rule="evenodd" d="M8.26839 4.62812C9.90319 4.27336 11.6093 4.23779 13.2615 4.52496L13.5302 4.5714C13.5903 4.5819 13.6288 4.60766 13.6485 4.62852C13.6673 4.64847 13.6673 4.66058 13.6673 4.6627V11.1145C13.6673 11.1164 13.6676 11.1381 13.6266 11.1672C13.584 11.1976 13.5144 11.2192 13.4334 11.2051C11.6536 10.8959 9.818 10.9341 8.05701 11.3162L8.05564 11.3165L7.89406 11.3521C6.15266 11.7299 4.33552 11.7677 2.57539 11.4616L2.47154 11.4434L2.46993 11.4431C2.41088 11.4329 2.37263 11.4075 2.35287 11.3865C2.33398 11.3665 2.33398 11.3543 2.33398 11.3525L2.33398 4.9007C2.33396 4.89879 2.33371 4.87702 2.37479 4.84776C2.41761 4.81725 2.48679 4.79549 2.56788 4.80949C4.34767 5.11872 6.18334 5.08047 7.9443 4.69836L8.26839 4.62812ZM8.05645 3.65084C9.81736 3.26873 11.6536 3.2305 13.4327 3.53972L13.7015 3.58619C14.2113 3.67495 14.6673 4.08736 14.6673 4.6627V11.1144C14.6673 11.8809 13.9073 12.3025 13.2622 12.1903C11.6095 11.9032 9.90372 11.9388 8.26907 12.2935L8.10805 12.3289L8.10669 12.3292C6.23882 12.7345 4.29152 12.7752 2.40402 12.4469L2.29982 12.4285L2.29907 12.4284C1.78893 12.34 1.33398 11.9263 1.33398 11.3525V4.90079C1.33398 4.13425 2.09455 3.713 2.73906 3.82425C4.39199 4.11144 6.09757 4.07583 7.73236 3.72107L8.05645 3.65084ZM9.06935 9.81772C9.24577 9.61124 9.33398 9.35727 9.33398 9.05581C9.33398 8.85759 9.29327 8.68828 9.21185 8.54787C9.13495 8.40334 9.02412 8.27326 8.87936 8.15763C8.73913 8.03787 8.52878 7.88301 8.24832 7.69305C7.995 7.52374 7.82536 7.3916 7.73941 7.29662C7.65346 7.20164 7.61049 7.0922 7.61049 6.96832C7.61049 6.8403 7.64442 6.74119 7.71227 6.67099C7.78013 6.59665 7.86834 6.55949 7.9769 6.55949C8.08999 6.55949 8.18046 6.59872 8.24832 6.67718C8.3207 6.75151 8.35688 6.85269 8.35688 6.9807V7.14795C8.35688 7.1686 8.36367 7.18718 8.37724 7.2037C8.39534 7.21609 8.41569 7.22228 8.43831 7.22228H9.21863C9.24125 7.22228 9.25934 7.21609 9.27292 7.2037C9.29101 7.18718 9.30006 7.1686 9.30006 7.14795V6.99929C9.30006 6.70609 9.21411 6.45625 9.04221 6.24977C8.87484 6.04329 8.64413 5.90908 8.3501 5.84714C8.33201 5.84301 8.32296 5.83062 8.32296 5.80997L8.32974 5.40734C8.32974 5.38669 8.3207 5.37017 8.3026 5.35779C8.28903 5.34127 8.27094 5.33301 8.24832 5.33301H7.70549C7.68287 5.33301 7.66251 5.34127 7.64442 5.35779C7.63085 5.37017 7.62406 5.38669 7.62406 5.40734L7.63085 5.80997C7.63085 5.83062 7.6218 5.84301 7.6037 5.84714C7.31419 5.90908 7.08575 6.03916 6.91838 6.23738C6.751 6.4356 6.66732 6.67925 6.66732 6.96832C6.66732 7.19131 6.71708 7.38747 6.8166 7.55678C6.91612 7.72609 7.03599 7.86856 7.17622 7.98419C7.31646 8.09982 7.49966 8.23196 7.72584 8.38063C7.98821 8.55407 8.16463 8.68621 8.2551 8.77706C8.34558 8.86379 8.39081 8.96909 8.39081 9.09298C8.39081 9.21273 8.35462 9.30978 8.28225 9.38411C8.20987 9.45844 8.1194 9.49561 8.01083 9.49561C7.90226 9.49561 7.81179 9.45638 7.73941 9.37792C7.66703 9.29945 7.63085 9.19622 7.63085 9.0682V8.93192C7.63085 8.91128 7.6218 8.89476 7.6037 8.88237C7.59013 8.86585 7.57204 8.85759 7.54942 8.85759H6.7691C6.74648 8.85759 6.72612 8.86585 6.70803 8.88237C6.69446 8.89476 6.68767 8.91128 6.68767 8.93192V9.11156C6.68767 9.38411 6.7691 9.61743 6.93195 9.81152C7.09932 10.0056 7.32324 10.1357 7.6037 10.2018C7.6218 10.2059 7.63085 10.2162 7.63085 10.2327L7.62406 10.592C7.62406 10.6127 7.63085 10.6292 7.64442 10.6416C7.66251 10.6581 7.68287 10.6663 7.70549 10.6663H8.2551C8.27772 10.6663 8.29582 10.6581 8.30939 10.6416C8.32748 10.6292 8.33653 10.6127 8.33653 10.592L8.32974 10.2451C8.32974 10.2286 8.34105 10.2162 8.36367 10.208C8.6577 10.1501 8.89293 10.0201 9.06935 9.81772Z" fill="#8656ED"/>
</svg>
